<svg width="26.775" height="26.775" xmlns="http://www.w3.org/2000/svg" xml:space="preserve" version="1.1">

 <g>
  <title>Layer 1</title>
  <g transform="rotate(-90 13.3871 13.3876)" id="svg_1">
   <path id="svg_2" fill="#030104" d="m13.915,0.379l8.258,9.98c0,0 1.252,1.184 -0.106,1.184c-1.363,0 -4.653,0 -4.653,0s0,0.801 0,2.025c0,3.514 0,9.9 0,12.498c0,0 0.184,0.709 -0.885,0.709c-1.072,0 -5.783,0 -6.55,0c-0.765,0 -0.749,-0.592 -0.749,-0.592c0,-2.531 0,-9.133 0,-12.527c0,-1.102 0,-1.816 0,-1.816s-2.637,0 -4.297,0c-1.654,0 -0.408,-1.24 -0.408,-1.24s7.025,-9.325 8.001,-10.305c0.714,-0.709 1.389,0.084 1.389,0.084z"/>
  </g>
  <g id="svg_3"/>
  <g id="svg_4"/>
  <g id="svg_5"/>
  <g id="svg_6"/>
  <g id="svg_7"/>
  <g id="svg_8"/>
  <g id="svg_9"/>
  <g id="svg_10"/>
  <g id="svg_11"/>
  <g id="svg_12"/>
  <g id="svg_13"/>
  <g id="svg_14"/>
  <g id="svg_15"/>
  <g id="svg_16"/>
  <g id="svg_17"/>
 </g>
</svg>